<svg width="197" height="90" viewBox="0 0 197 90" fill="none" xmlns="http://www.w3.org/2000/svg">
<g filter="url(#filter0_i_161_42)">
<path d="M10.86 57.9H19.32C22.2 57.9 23.64 56.42 23.64 53.46V33.96C23.64 31 22.2 29.52 19.32 29.52H10.86C10.42 29.52 10.2 29.72 10.2 30.12V57.24C10.2 57.68 10.42 57.9 10.86 57.9ZM4.38 61.98V25.44C4.38 24.76 4.72 24.42 5.4 24.42H20.16C23.08 24.42 25.36 25.24 27 26.88C28.68 28.48 29.52 30.76 29.52 33.72V53.7C29.52 56.62 28.68 58.9 27 60.54C25.36 62.18 23.08 63 20.16 63H5.4C4.72 63 4.38 62.66 4.38 61.98ZM42.5812 25.44V61.98C42.5812 62.66 42.2412 63 41.5612 63H37.7812C37.1012 63 36.7612 62.66 36.7612 61.98V25.44C36.7612 24.76 37.1012 24.42 37.7812 24.42H41.5612C42.2412 24.42 42.5812 24.76 42.5812 25.44ZM65.557 63H59.137C56.177 63 53.877 62.18 52.237 60.54C50.637 58.9 49.837 56.62 49.837 53.7V33.72C49.837 30.76 50.637 28.48 52.237 26.88C53.877 25.24 56.177 24.42 59.137 24.42H65.557C68.517 24.42 70.797 25.24 72.397 26.88C74.037 28.48 74.857 30.76 74.857 33.72V35.88C74.857 36.6 74.517 36.96 73.837 36.96H70.057C69.377 36.96 69.037 36.6 69.037 35.88V33.96C69.037 31 67.597 29.52 64.717 29.52H59.977C57.097 29.52 55.657 31 55.657 33.96V53.46C55.657 56.42 57.097 57.9 59.977 57.9H64.717C67.597 57.9 69.037 56.42 69.037 53.46V48.06C69.037 47.66 68.817 47.46 68.377 47.46H63.517C62.837 47.46 62.497 47.12 62.497 46.44V43.38C62.497 42.7 62.837 42.36 63.517 42.36H73.597C74.437 42.36 74.857 42.78 74.857 43.62V53.7C74.857 56.62 74.037 58.9 72.397 60.54C70.757 62.18 68.477 63 65.557 63ZM87.9352 25.44V61.98C87.9352 62.66 87.5952 63 86.9152 63H83.1352C82.4552 63 82.1152 62.66 82.1152 61.98V25.44C82.1152 24.76 82.4552 24.42 83.1352 24.42H86.9152C87.5952 24.42 87.9352 24.76 87.9352 25.44ZM100.591 63H96.8109C96.1309 63 95.7909 62.66 95.7909 61.98V25.44C95.7909 24.76 96.1309 24.42 96.8109 24.42H111.091C114.011 24.42 116.291 25.24 117.931 26.88C119.571 28.48 120.391 30.76 120.391 33.72V39.96C120.391 42.88 119.571 45.16 117.931 46.8C116.291 48.44 114.011 49.26 111.091 49.26H102.331C101.851 49.26 101.611 49.46 101.611 49.86V61.98C101.611 62.66 101.271 63 100.591 63ZM102.271 44.1H110.251C113.091 44.1 114.511 42.62 114.511 39.66V33.96C114.511 31 113.091 29.52 110.251 29.52H102.271C101.831 29.52 101.611 29.72 101.611 30.12V43.5C101.611 43.9 101.831 44.1 102.271 44.1ZM131.09 63H127.31C126.63 63 126.29 62.66 126.29 61.98V25.44C126.29 24.76 126.63 24.42 127.31 24.42H141.35C144.27 24.42 146.55 25.26 148.19 26.94C149.87 28.58 150.71 30.86 150.71 33.78V38.82C150.71 43.42 148.81 46.32 145.01 47.52V47.76L151.67 61.8C152.11 62.6 151.85 63 150.89 63H147.17C146.21 63 145.59 62.66 145.31 61.98L138.89 48.18H132.83C132.35 48.18 132.11 48.38 132.11 48.78V61.98C132.11 62.66 131.77 63 131.09 63ZM132.77 43.38H140.39C143.35 43.38 144.83 41.92 144.83 39V33.96C144.83 31 143.35 29.52 140.39 29.52H132.77C132.33 29.52 132.11 29.72 132.11 30.12V42.78C132.11 43.18 132.33 43.38 132.77 43.38Z" fill="url(#paint0_linear_161_42)"/>
<path d="M174.538 46.5385C173.722 46.5385 172.94 46.8626 172.363 47.4397C171.786 48.0167 171.462 48.7993 171.462 49.6154C171.462 50.4314 171.786 51.2141 172.363 51.7911C172.94 52.3681 173.722 52.6923 174.538 52.6923C175.355 52.6923 176.137 52.3681 176.714 51.7911C177.291 51.2141 177.615 50.4314 177.615 49.6154C177.615 48.7993 177.291 48.0167 176.714 47.4397C176.137 46.8626 175.355 46.5385 174.538 46.5385ZM165.308 49.6154C165.308 47.1672 166.28 44.8194 168.011 43.0882C169.742 41.3571 172.09 40.3846 174.538 40.3846C176.987 40.3846 179.334 41.3571 181.066 43.0882C182.797 44.8194 183.769 47.1672 183.769 49.6154C183.769 52.0635 182.797 54.4114 181.066 56.1425C179.334 57.8736 176.987 58.8462 174.538 58.8462C172.09 58.8462 169.742 57.8736 168.011 56.1425C166.28 54.4114 165.308 52.0635 165.308 49.6154ZM174.538 43.4615C172.906 43.4615 171.341 44.1099 170.187 45.264C169.033 46.418 168.385 47.9833 168.385 49.6154C168.385 51.2475 169.033 52.8127 170.187 53.9668C171.341 55.1209 172.906 55.7692 174.538 55.7692C176.171 55.7692 177.736 55.1209 178.89 53.9668C180.044 52.8127 180.692 51.2475 180.692 49.6154C180.692 47.9833 180.044 46.418 178.89 45.264C177.736 44.1099 176.171 43.4615 174.538 43.4615ZM153 29.6154C153 28.3913 153.486 27.2174 154.352 26.3518C155.217 25.4863 156.391 25 157.615 25H191.462C192.686 25 193.86 25.4863 194.725 26.3518C195.591 27.2174 196.077 28.3913 196.077 29.6154V32.6923C196.077 33.6472 195.782 34.5787 195.231 35.3584C194.68 36.1382 193.9 36.7279 193 37.0462V46.5385C193 51.4348 191.055 56.1305 187.593 59.5927C184.131 63.0549 179.435 65 174.538 65C169.642 65 164.946 63.0549 161.484 59.5927C158.022 56.1305 156.077 51.4348 156.077 46.5385V37.0462C155.177 36.7279 154.397 36.1382 153.846 35.3584C153.295 34.5787 153 33.6472 153 32.6923V29.6154ZM157.615 34.2308H191.462C191.87 34.2308 192.261 34.0687 192.549 33.7802C192.838 33.4916 193 33.1003 193 32.6923V29.6154C193 29.2074 192.838 28.816 192.549 28.5275C192.261 28.239 191.87 28.0769 191.462 28.0769H157.615C157.207 28.0769 156.816 28.239 156.528 28.5275C156.239 28.816 156.077 29.2074 156.077 29.6154V32.6923C156.077 33.1003 156.239 33.4916 156.528 33.7802C156.816 34.0687 157.207 34.2308 157.615 34.2308ZM159.154 37.3077V46.5385C159.154 50.6187 160.775 54.5319 163.66 57.417C166.545 60.3022 170.458 61.9231 174.538 61.9231C178.619 61.9231 182.532 60.3022 185.417 57.417C188.302 54.5319 189.923 50.6187 189.923 46.5385V37.3077H159.154Z" fill="url(#paint1_linear_161_42)"/>
</g>
<defs>
<filter id="filter0_i_161_42" x="4.37988" y="24.42" width="191.697" height="44.58" filterUnits="userSpaceOnUse" color-interpolation-filters="sRGB">
<feFlood flood-opacity="0" result="BackgroundImageFix"/>
<feBlend mode="normal" in="SourceGraphic" in2="BackgroundImageFix" result="shape"/>
<feColorMatrix in="SourceAlpha" type="matrix" values="0 0 0 0 0 0 0 0 0 0 0 0 0 0 0 0 0 0 127 0" result="hardAlpha"/>
<feOffset dy="4"/>
<feGaussianBlur stdDeviation="2"/>
<feComposite in2="hardAlpha" operator="arithmetic" k2="-1" k3="1"/>
<feColorMatrix type="matrix" values="0 0 0 0 0 0 0 0 0 0 0 0 0 0 0 0 0 0 0.25 0"/>
<feBlend mode="normal" in2="shape" result="effect1_innerShadow_161_42"/>
</filter>
<linearGradient id="paint0_linear_161_42" x1="5.5" y1="45" x2="151.5" y2="45" gradientUnits="userSpaceOnUse">
<stop stop-color="#0CC5FF"/>
<stop offset="1" stop-color="#3648EE"/>
</linearGradient>
<linearGradient id="paint1_linear_161_42" x1="158.5" y1="45" x2="191" y2="45" gradientUnits="userSpaceOnUse">
<stop stop-color="#3648EE"/>
<stop offset="1" stop-color="#8D1AE7"/>
</linearGradient>
</defs>
</svg>
