<svg width="12" height="10" viewBox="0 0 12 10" fill="none" xmlns="http://www.w3.org/2000/svg">
<path d="M0 0.75C0 0.551088 0.0790175 0.360322 0.21967 0.21967C0.360322 0.0790175 0.551088 0 0.75 0H11.25C11.4489 0 11.6397 0.0790175 11.7803 0.21967C11.921 0.360322 12 0.551088 12 0.75C12 0.948912 11.921 1.13968 11.7803 1.28033C11.6397 1.42098 11.4489 1.5 11.25 1.5H0.75C0.551088 1.5 0.360322 1.42098 0.21967 1.28033C0.0790175 1.13968 0 0.948912 0 0.75ZM0 4.75C0 4.55109 0.0790175 4.36032 0.21967 4.21967C0.360322 4.07902 0.551088 4 0.75 4H11.25C11.4489 4 11.6397 4.07902 11.7803 4.21967C11.921 4.36032 12 4.55109 12 4.75C12 4.94891 11.921 5.13968 11.7803 5.28033C11.6397 5.42098 11.4489 5.5 11.25 5.5H0.75C0.551088 5.5 0.360322 5.42098 0.21967 5.28033C0.0790175 5.13968 0 4.94891 0 4.75ZM0 8.75C0 8.55109 0.0790175 8.36032 0.21967 8.21967C0.360322 8.07902 0.551088 8 0.75 8H11.25C11.4489 8 11.6397 8.07902 11.7803 8.21967C11.921 8.36032 12 8.55109 12 8.75C12 8.94891 11.921 9.13968 11.7803 9.28033C11.6397 9.42098 11.4489 9.5 11.25 9.5H0.75C0.551088 9.5 0.360322 9.42098 0.21967 9.28033C0.0790175 9.13968 0 8.94891 0 8.75Z" fill="black"/>
</svg>
