<svg width="58" height="60" viewBox="0 0 58 60" fill="none" xmlns="http://www.w3.org/2000/svg">
<rect y="0.829346" width="58" height="59.1307" rx="29" fill="#E4EEF8"/>
<path d="M22.7106 17.5431C22.4853 17.7679 22.3066 18.0349 22.1847 18.3289C22.0628 18.6228 22 18.9379 22 19.2561C22 19.5744 22.0628 19.8895 22.1847 20.1834C22.3066 20.4774 22.4853 20.7444 22.7106 20.9692L32.1382 30.3968L22.7106 39.8245C22.2563 40.2788 22.001 40.895 22.001 41.5375C22.001 42.18 22.2563 42.7962 22.7106 43.2505C23.1649 43.7048 23.7811 43.96 24.4236 43.96C25.0661 43.96 25.6823 43.7048 26.1366 43.2505L37.2894 32.0977C37.5147 31.8729 37.6934 31.6059 37.8153 31.3119C37.9372 31.018 38 30.7029 38 30.3847C38 30.0664 37.9372 29.7513 37.8153 29.4574C37.6934 29.1634 37.5147 28.8964 37.2894 28.6716L26.1366 17.5188C25.2133 16.5955 23.6582 16.5955 22.7106 17.5431Z" fill="#1B1C27"/>
</svg>
