<svg width="96" height="97" viewBox="0 0 96 97" fill="none" xmlns="http://www.w3.org/2000/svg">
<path d="M0 10.4948C0 5.21478 4.32 0.894775 9.6 0.894775H86.4C88.9461 0.894775 91.3879 1.9062 93.1882 3.70655C94.9886 5.5069 96 7.9487 96 10.4948V20.0948C96 22.6409 94.9886 25.0827 93.1882 26.883C91.3879 28.6833 88.9461 29.6948 86.4 29.6948H9.6C7.05392 29.6948 4.61212 28.6833 2.81178 26.883C1.01143 25.0827 0 22.6409 0 20.0948V10.4948ZM0 44.0948C0 38.8148 4.32 34.4948 9.6 34.4948H86.4C88.9461 34.4948 91.3879 35.5062 93.1882 37.3066C94.9886 39.1069 96 41.5487 96 44.0948V53.6948C96 56.2409 94.9886 58.6827 93.1882 60.483C91.3879 62.2834 88.9461 63.2948 86.4 63.2948H9.6C7.05392 63.2948 4.61212 62.2834 2.81178 60.483C1.01143 58.6827 0 56.2409 0 53.6948V44.0948ZM0 77.6948C0 72.4148 4.32 68.0948 9.6 68.0948H86.4C88.9461 68.0948 91.3879 69.1062 93.1882 70.9066C94.9886 72.7069 96 75.1487 96 77.6948V87.2948C96 89.8409 94.9886 92.2827 93.1882 94.083C91.3879 95.8833 88.9461 96.8948 86.4 96.8948H9.6C7.05392 96.8948 4.61212 95.8833 2.81178 94.083C1.01143 92.2827 0 89.8409 0 87.2948V77.6948ZM57.6 10.4948V20.0948H67.2V10.4948H57.6ZM76.8 10.4948V20.0948H86.4V10.4948H76.8ZM57.6 44.0948V53.6948H67.2V44.0948H57.6ZM76.8 44.0948V53.6948H86.4V44.0948H76.8ZM57.6 77.6948V87.2948H67.2V77.6948H57.6ZM76.8 77.6948V87.2948H86.4V77.6948H76.8Z" fill="#1E1E1E"/>
</svg>
