<svg width="81" height="77" viewBox="0 0 81 77" fill="none" xmlns="http://www.w3.org/2000/svg">
<path d="M12.0533 0.614746C8.33335 4.32429 5.383 8.73225 3.37172 13.5854C1.36043 18.4386 0.327846 23.6413 0.333273 28.8947C0.333273 39.9347 4.81327 49.9347 12.0533 57.1747L17.6933 51.5347C14.7119 48.5687 12.3492 45.04 10.7425 41.1536C9.1357 37.2671 8.31679 33.1002 8.33327 28.8947C8.33327 20.0547 11.8933 12.0147 17.6933 6.25475L12.0533 0.614746ZM68.6133 0.614746L62.9733 6.25475C65.9511 9.22348 68.3114 12.7526 69.9179 16.6385C71.5244 20.5243 72.3453 24.6899 72.3333 28.8947C72.3333 37.7747 68.7733 45.7747 62.9733 51.5347L68.6133 57.1747C72.3332 53.4652 75.2835 49.0572 77.2948 44.2041C79.3061 39.3509 80.3387 34.1482 80.3333 28.8947C80.3333 17.8547 75.8533 7.85475 68.6133 0.614746ZM23.3733 11.9347C21.1405 14.1586 19.3691 16.8017 18.161 19.7123C16.9528 22.6228 16.3317 25.7434 16.3333 28.8947C16.3333 35.4947 19.0133 41.4947 23.3733 45.8547L29.0133 40.2147C27.5279 38.7277 26.3501 36.9627 25.5471 35.0203C24.7441 33.078 24.3316 30.9965 24.3333 28.8947C24.3333 24.4547 26.1333 20.4547 29.0133 17.5747L23.3733 11.9347ZM57.2933 11.9347L51.6533 17.5747C53.1386 19.0617 54.3164 20.8268 55.1195 22.7691C55.9225 24.7115 56.3349 26.793 56.3333 28.8947C56.3333 33.3347 54.5333 37.3347 51.6533 40.2147L57.2933 45.8547C59.5261 43.6309 61.2974 40.9878 62.5056 38.0772C63.7137 35.1667 64.3349 32.0461 64.3333 28.8947C64.3333 22.2947 61.6533 16.2947 57.2933 11.9347ZM40.3333 20.8947C38.2115 20.8947 36.1767 21.7376 34.6764 23.2379C33.1761 24.7382 32.3333 26.773 32.3333 28.8947C32.3333 31.0165 33.1761 33.0513 34.6764 34.5516C36.1767 36.0519 38.2115 36.8947 40.3333 36.8947C42.455 36.8947 44.4898 36.0519 45.9901 34.5516C47.4904 33.0513 48.3333 31.0165 48.3333 28.8947C48.3333 26.773 47.4904 24.7382 45.9901 23.2379C44.4898 21.7376 42.455 20.8947 40.3333 20.8947ZM36.3333 44.8947V60.8947H32.3333C31.2724 60.8947 30.255 61.3162 29.5048 62.0663C28.7547 62.8165 28.3333 63.8339 28.3333 64.8947H0.333273V72.8947H28.3333C28.3333 73.9556 28.7547 74.973 29.5048 75.7232C30.255 76.4733 31.2724 76.8947 32.3333 76.8947H48.3333C49.3941 76.8947 50.4116 76.4733 51.1617 75.7232C51.9118 74.973 52.3333 73.9556 52.3333 72.8947H80.3333V64.8947H52.3333C52.3333 63.8339 51.9118 62.8165 51.1617 62.0663C50.4116 61.3162 49.3941 60.8947 48.3333 60.8947H44.3333V44.8947H36.3333Z" fill="black"/>
</svg>
