<svg width="197" height="60" viewBox="0 0 197 60" fill="none" xmlns="http://www.w3.org/2000/svg">
<g filter="url(#filter0_i_161_42)">
<path d="M10.86 42.9H19.32C22.2 42.9 23.64 41.42 23.64 38.46V18.96C23.64 16 22.2 14.52 19.32 14.52H10.86C10.42 14.52 10.2 14.72 10.2 15.12V42.24C10.2 42.68 10.42 42.9 10.86 42.9ZM4.38 46.98V10.44C4.38 9.76 4.72 9.42 5.4 9.42H20.16C23.08 9.42 25.36 10.24 27 11.88C28.68 13.48 29.52 15.76 29.52 18.72V38.7C29.52 41.62 28.68 43.9 27 45.54C25.36 47.18 23.08 48 20.16 48H5.4C4.72 48 4.38 47.66 4.38 46.98ZM42.5812 10.44V46.98C42.5812 47.66 42.2412 48 41.5612 48H37.7812C37.1012 48 36.7612 47.66 36.7612 46.98V10.44C36.7612 9.76 37.1012 9.42 37.7812 9.42H41.5612C42.2412 9.42 42.5812 9.76 42.5812 10.44ZM65.557 48H59.137C56.177 48 53.877 47.18 52.237 45.54C50.637 43.9 49.837 41.62 49.837 38.7V18.72C49.837 15.76 50.637 13.48 52.237 11.88C53.877 10.24 56.177 9.42 59.137 9.42H65.557C68.517 9.42 70.797 10.24 72.397 11.88C74.037 13.48 74.857 15.76 74.857 18.72V20.88C74.857 21.6 74.517 21.96 73.837 21.96H70.057C69.377 21.96 69.037 21.6 69.037 20.88V18.96C69.037 16 67.597 14.52 64.717 14.52H59.977C57.097 14.52 55.657 16 55.657 18.96V38.46C55.657 41.42 57.097 42.9 59.977 42.9H64.717C67.597 42.9 69.037 41.42 69.037 38.46V33.06C69.037 32.66 68.817 32.46 68.377 32.46H63.517C62.837 32.46 62.497 32.12 62.497 31.44V28.38C62.497 27.7 62.837 27.36 63.517 27.36H73.597C74.437 27.36 74.857 27.78 74.857 28.62V38.7C74.857 41.62 74.037 43.9 72.397 45.54C70.757 47.18 68.477 48 65.557 48ZM87.9352 10.44V46.98C87.9352 47.66 87.5952 48 86.9152 48H83.1352C82.4552 48 82.1152 47.66 82.1152 46.98V10.44C82.1152 9.76 82.4552 9.42 83.1352 9.42H86.9152C87.5952 9.42 87.9352 9.76 87.9352 10.44ZM100.591 48H96.8109C96.1309 48 95.7909 47.66 95.7909 46.98V10.44C95.7909 9.76 96.1309 9.42 96.8109 9.42H111.091C114.011 9.42 116.291 10.24 117.931 11.88C119.571 13.48 120.391 15.76 120.391 18.72V24.96C120.391 27.88 119.571 30.16 117.931 31.8C116.291 33.44 114.011 34.26 111.091 34.26H102.331C101.851 34.26 101.611 34.46 101.611 34.86V46.98C101.611 47.66 101.271 48 100.591 48ZM102.271 29.1H110.251C113.091 29.1 114.511 27.62 114.511 24.66V18.96C114.511 16 113.091 14.52 110.251 14.52H102.271C101.831 14.52 101.611 14.72 101.611 15.12V28.5C101.611 28.9 101.831 29.1 102.271 29.1ZM131.09 48H127.31C126.63 48 126.29 47.66 126.29 46.98V10.44C126.29 9.76 126.63 9.42 127.31 9.42H141.35C144.27 9.42 146.55 10.26 148.19 11.94C149.87 13.58 150.71 15.86 150.71 18.78V23.82C150.71 28.42 148.81 31.32 145.01 32.52V32.76L151.67 46.8C152.11 47.6 151.85 48 150.89 48H147.17C146.21 48 145.59 47.66 145.31 46.98L138.89 33.18H132.83C132.35 33.18 132.11 33.38 132.11 33.78V46.98C132.11 47.66 131.77 48 131.09 48ZM132.77 28.38H140.39C143.35 28.38 144.83 26.92 144.83 24V18.96C144.83 16 143.35 14.52 140.39 14.52H132.77C132.33 14.52 132.11 14.72 132.11 15.12V27.78C132.11 28.18 132.33 28.38 132.77 28.38Z" fill="url(#paint0_linear_161_42)"/>
<path d="M174.538 31.5385C173.722 31.5385 172.94 31.8626 172.363 32.4397C171.786 33.0167 171.462 33.7993 171.462 34.6154C171.462 35.4314 171.786 36.2141 172.363 36.7911C172.94 37.3681 173.722 37.6923 174.538 37.6923C175.355 37.6923 176.137 37.3681 176.714 36.7911C177.291 36.2141 177.615 35.4314 177.615 34.6154C177.615 33.7993 177.291 33.0167 176.714 32.4397C176.137 31.8626 175.355 31.5385 174.538 31.5385ZM165.308 34.6154C165.308 32.1672 166.28 29.8194 168.011 28.0882C169.742 26.3571 172.09 25.3846 174.538 25.3846C176.987 25.3846 179.334 26.3571 181.066 28.0882C182.797 29.8194 183.769 32.1672 183.769 34.6154C183.769 37.0635 182.797 39.4114 181.066 41.1425C179.334 42.8736 176.987 43.8462 174.538 43.8462C172.09 43.8462 169.742 42.8736 168.011 41.1425C166.28 39.4114 165.308 37.0635 165.308 34.6154ZM174.538 28.4615C172.906 28.4615 171.341 29.1099 170.187 30.264C169.033 31.418 168.385 32.9833 168.385 34.6154C168.385 36.2475 169.033 37.8127 170.187 38.9668C171.341 40.1209 172.906 40.7692 174.538 40.7692C176.171 40.7692 177.736 40.1209 178.89 38.9668C180.044 37.8127 180.692 36.2475 180.692 34.6154C180.692 32.9833 180.044 31.418 178.89 30.264C177.736 29.1099 176.171 28.4615 174.538 28.4615ZM153 14.6154C153 13.3913 153.486 12.2174 154.352 11.3518C155.217 10.4863 156.391 10 157.615 10H191.462C192.686 10 193.86 10.4863 194.725 11.3518C195.591 12.2174 196.077 13.3913 196.077 14.6154V17.6923C196.077 18.6472 195.782 19.5787 195.231 20.3584C194.68 21.1382 193.9 21.7279 193 22.0462V31.5385C193 36.4348 191.055 41.1305 187.593 44.5927C184.131 48.0549 179.435 50 174.538 50C169.642 50 164.946 48.0549 161.484 44.5927C158.022 41.1305 156.077 36.4348 156.077 31.5385V22.0462C155.177 21.7279 154.397 21.1382 153.846 20.3584C153.295 19.5787 153 18.6472 153 17.6923V14.6154ZM157.615 19.2308H191.462C191.87 19.2308 192.261 19.0687 192.549 18.7802C192.838 18.4916 193 18.1003 193 17.6923V14.6154C193 14.2074 192.838 13.816 192.549 13.5275C192.261 13.239 191.87 13.0769 191.462 13.0769H157.615C157.207 13.0769 156.816 13.239 156.528 13.5275C156.239 13.816 156.077 14.2074 156.077 14.6154V17.6923C156.077 18.1003 156.239 18.4916 156.528 18.7802C156.816 19.0687 157.207 19.2308 157.615 19.2308ZM159.154 22.3077V31.5385C159.154 35.6187 160.775 39.5319 163.66 42.417C166.545 45.3022 170.458 46.9231 174.538 46.9231C178.619 46.9231 182.532 45.3022 185.417 42.417C188.302 39.5319 189.923 35.6187 189.923 31.5385V22.3077H159.154Z" fill="url(#paint1_linear_161_42)"/>
</g>
<defs>
<filter id="filter0_i_161_42" x="4.37988" y="9.42004" width="191.697" height="44.58" filterUnits="userSpaceOnUse" color-interpolation-filters="sRGB">
<feFlood flood-opacity="0" result="BackgroundImageFix"/>
<feBlend mode="normal" in="SourceGraphic" in2="BackgroundImageFix" result="shape"/>
<feColorMatrix in="SourceAlpha" type="matrix" values="0 0 0 0 0 0 0 0 0 0 0 0 0 0 0 0 0 0 127 0" result="hardAlpha"/>
<feOffset dy="4"/>
<feGaussianBlur stdDeviation="2"/>
<feComposite in2="hardAlpha" operator="arithmetic" k2="-1" k3="1"/>
<feColorMatrix type="matrix" values="0 0 0 0 0 0 0 0 0 0 0 0 0 0 0 0 0 0 0.25 0"/>
<feBlend mode="normal" in2="shape" result="effect1_innerShadow_161_42"/>
</filter>
<linearGradient id="paint0_linear_161_42" x1="5.5" y1="30" x2="151.5" y2="30" gradientUnits="userSpaceOnUse">
<stop stop-color="#0CC5FF"/>
<stop offset="1" stop-color="#3648EE"/>
</linearGradient>
<linearGradient id="paint1_linear_161_42" x1="158.5" y1="30" x2="191" y2="30" gradientUnits="userSpaceOnUse">
<stop stop-color="#3648EE"/>
<stop offset="1" stop-color="#8D1AE7"/>
</linearGradient>
</defs>
</svg>
