<svg width="80" height="60" viewBox="0 0 80 60" fill="none" xmlns="http://www.w3.org/2000/svg">
<path fill-rule="evenodd" clip-rule="evenodd" d="M28.688 35.336L40.008 43.076L50.92 35.548L75.38 59.68C74.7347 59.8907 74.052 59.9973 73.332 60H6.668C5.788 60 4.948 59.828 4.176 59.52L28.688 35.336ZM80 15.504V53.332C80 54.32 79.784 55.256 79.4 56.1L55.424 32.444L80 15.504ZM0 15.716L24.168 32.244L0.424 55.676C0.145851 54.9257 0.00231597 54.1322 0 53.332L0 15.716ZM73.332 0C77.012 0 80 2.984 80 6.668V9.012L39.992 36.592L0 9.24V6.668C0 2.988 2.984 0 6.668 0H73.332Z" fill="black"/>
</svg>
