<svg width="97" height="97" viewBox="0 0 97 97" fill="none" xmlns="http://www.w3.org/2000/svg">
<path d="M77.0431 66.9091L64.7607 59.4127L84.5255 43.8202L96.6666 51.3166L77.0431 66.9091ZM0.666626 96.8948V84.9005H28.9019V49.2176L11.9607 38.8726C9.23133 37.1734 7.46757 34.7505 6.66945 31.6041C5.87133 28.4576 6.27039 25.433 7.86663 22.5304L16.3372 6.93788C17.9372 4.03927 20.2205 2.16617 23.1871 1.31857C26.1537 0.470979 28.9998 0.894775 31.7255 2.58996L85.5137 35.5742L51.0666 62.8611L40.196 56.2642V84.9005C40.196 88.1989 39.0892 91.0236 36.8756 93.3745C34.6619 95.7253 32.004 96.8988 28.9019 96.8948H0.666626Z" fill="black"/>
</svg>
